<?xml version="1.0" encoding="UTF-8" standalone="no"?><!DOCTYPE svg PUBLIC "-//W3C//DTD SVG 1.1//EN" "http://www.w3.org/Graphics/SVG/1.1/DTD/svg11.dtd"><svg width="100%" height="100%" viewBox="0 0 542 542" version="1.1" xmlns="http://www.w3.org/2000/svg" xmlns:xlink="http://www.w3.org/1999/xlink" xml:space="preserve" xmlns:serif="http://www.serif.com/" style="fill-rule:evenodd;clip-rule:evenodd;stroke-linejoin:round;stroke-miterlimit:2;"><rect id="logo_rgb" x="0" y="0" width="541.667" height="541.667" style="fill:none;"/><g><path d="M270.833,83.333l-187.5,250l187.5,41.667l187.5,-41.667l-187.5,-250Z" style="fill:#cad3ff;"/><path d="M270.833,375l0,-291.667l187.5,250l-187.5,41.667Z" style="fill:#8d9fff;"/><path d="M270.833,458.333l-187.5,-125l187.5,37.5l187.5,-37.5l-187.5,125Z" style="fill:#1a1a1a;"/><path d="M270.833,208.333l-93.75,125l93.75,41.667l93.75,-41.667l-93.75,-125Z" style="fill:#acb8ff;"/><path d="M83.333,333.333l62.5,-166.666l125,208.333l-187.5,-41.667Z" style="fill:#383838;"/><path d="M458.333,333.333l-62.5,-166.666l-125,208.333l187.5,-41.667Z" style="fill:#383838;"/></g></svg>